{"title":"Shakira Ft. Rihanna - Can't  Forget You [Music Video] 1080p [Sby","uid":9651287,"size":65650982,"categoryP":"video","categoryS":"music_videos","magnet":"?xt=urn:btih:43aa4b137d26f88ce4dccbe9770a98db41fc1f54&amp;dn=Shakira+Ft.+Rihanna+-+Can%27t++Forget+You+%5BMusic+Video%5D+1080p+%5BSby&amp;tr=udp%3A%2F%2Ftracker.openbittorrent.com%3A80&amp;tr=udp%3A%2F%2Fopen.demonii.com%3A1337&amp;tr=udp%3A%2F%2Ftracker.coppersurfer.tk%3A6969&amp;tr=udp%3A%2F%2Fexodus.desync.com%3A6969","seeders":10,"leechers":0,"uploader":"Sbyky","files":1,"time":1393077477,"description":"\n\nGeneral\nComplete name                            : Shakira Ft. Rihanna - Can't Remember To Forget You [Music Video] 1080p [Sbyky].MP4\nFormat                                   : MPEG-4\nFormat profile                           : Base Media\nCodec ID                                 : isom\nFile size                                : 62.6 MiB\nDuration                                 : 3mn 25s\nOverall bit rate mode                    : Variable\nOverall bit rate                         : 2 550 Kbps\nEncoded date                             : UTC 2014-02-08 14:08:32\nTagged date                              : UTC 2014-02-08 14:08:32\n\nVideo\nID                                       : 1\nFormat                                   : AVC\nFormat/Info                              : Advanced Video Codec\nFormat profile                           : &lt;a class=&quot;__cf_email__&quot; href=&quot;/cdn-cgi/l/email-protection&quot; data-cfemail=&quot;6129080609212d554f51&quot;&gt;[email&amp;#160;protected]&lt;/a&gt;&lt;script cf-hash='f9e31' type=&quot;text/javascript&quot;&gt;\n/* &lt;![CDATA[ */!function(){try{var t=&quot;currentScript&quot;in document?document.currentScript:function(){for(var t=document.getElementsByTagName(&quot;script&quot;),e=t.length;e--;)if(t[e].getAttribute(&quot;cf-hash&quot;))return t[e]}();if(t&amp;&amp;t.previousSibling){var e,r,n,i,c=t.previousSibling,a=c.getAttribute(&quot;data-cfemail&quot;);if(a){for(e=&quot;&quot;,r=parseInt(a.substr(0,2),16),n=2;a.length-n;n+=2)i=parseInt(a.substr(n,2),16)^r,e+=String.fromCharCode(i);e=document.createTextNode(e),c.parentNode.replaceChild(e,c)}}}catch(u){}}();/* ]]&gt; */&lt;/script&gt;\nFormat settings, CABAC                   : Yes\nFormat settings, ReFrames                : 3 frames\nCodec ID                                 : avc1\nCodec ID/Info                            : Advanced Video Coding\nDuration                                 : 3mn 25s\nDuration_LastFrame                       : -41ms\nBit rate                                 : 2 422 Kbps\nWidth                                    : 1 920 pixels\nHeight                                   : 1 080 pixels\nDisplay aspect ratio                     : 16:9\nFrame rate mode                          : Constant\nFrame rate                               : 23.976 fps\nColor space                              : YUV\nChroma subsampling                       : 4:2:0\nBit depth                                : 8 bits\nScan type                                : Progressive\nBits/(Pixel*Frame)                       : 0.049\nStream size                              : 59.4 MiB (95%)\nEncoded date                             : UTC 2014-02-08 14:08:32\nTagged date                              : UTC 2014-02-08 14:08:32\n\nAudio\nID                                       : 2\nFormat                                   : AAC\nFormat/Info                              : Advanced Audio Codec\nFormat profile                           : LC\nCodec ID                                 : 40\nDuration                                 : 3mn 25s\nBit rate mode                            : Variable\nBit rate                                 : 126 Kbps\nChannel(s)                               : 2 channels\nChannel positions                        : Front: L R\nSampling rate                            : 44.1 KHz\nCompression mode                         : Lossy\nStream size                              : 3.08 MiB (5%)\nEncoded date                             : UTC 2014-02-08 14:04:02\nTagged date                              : UTC 2014-02-08 14:04:02\n\nShared By Sbyky\n","torrent":{"xt":"urn:btih:43aa4b137d26f88ce4dccbe9770a98db41fc1f54","amp;dn":"Shakira+Ft.+Rihanna+-+Can%27t++Forget+You+%5BMusic+Video%5D+1080p+%5BSby","amp;tr":["udp%3A%2F%2Ftracker.openbittorrent.com%3A80","udp%3A%2F%2Fopen.demonii.com%3A1337","udp%3A%2F%2Ftracker.coppersurfer.tk%3A6969","udp%3A%2F%2Fexodus.desync.com%3A6969"],"infoHash":"43aa4b137d26f88ce4dccbe9770a98db41fc1f54","infoHashBuffer":{"type":"Buffer","data":[67,170,75,19,125,38,248,140,228,220,203,233,119,10,152,219,65,252,31,84]},"announce":[],"urlList":[]}}